<?xml version="1.0" encoding="UTF-8" standalone="no"?>
<svg xmlns="http://www.w3.org/2000/svg" viewBox="0 0 125 80" height="80mm" width="125mm">
    <g fill="#555555">
        <path d="m 16.320321,74.714816 -0.649431,-0.64943 v -6.758909 -6.7589 h -3.583902 c -3.4523515,0 -3.6077385,-0.0238 -4.2333325,-0.64943 l -0.649432,-0.64943 v -9.28447 -9.28447 l 0.649432,-0.64943 c 0.625594,-0.62559 0.780981,-0.64943 4.2333325,-0.64943 h 3.583902 v -2.11667 -2.11666 h -3.583902 c -3.4523515,0 -3.6077385,-0.0238 -4.2333325,-0.64944 l -0.649432,-0.64943 v -9.28447 -9.28447 l 0.649432,-0.64943 c 0.625594,-0.62559 0.780981,-0.64943 4.2333325,-0.64943 h 3.583902 v -3.175 -3.1750006 H 9.9703224 c -5.6996769,0 -5.7006699,-1e-4 -6.3499999,-0.64943 -0.859194,-0.85919 -0.859194,-2.07528 0,-2.93447 l 0.649432,-0.64943 h 7.1678015 7.167803 l 0.649432,0.64943 c 0.533373,0.53337 0.649432,0.91164 0.649432,2.11667 v 1.46723 h 50.150565 50.150572 l 0.64943,0.64943 0.64943,0.64943 v 28.3344706 28.33447 l -0.64943,0.64943 -0.64943,0.64943 H 103.92145 87.637548 v 3.583899 c 0,3.45236 -0.0238,3.60774 -0.64943,4.23334 l -0.64943,0.64943 h -9.28447 -9.28447 l -0.64943,-0.64943 c -0.62559,-0.6256 -0.64943,-0.78098 -0.64943,-4.23334 v -3.583899 h -2.11667 -2.11666 v 3.583899 c 0,3.45236 -0.0238,3.60774 -0.64944,4.23334 l -0.64943,0.64943 H 43.187555 25.436419 l -0.64943,-0.64943 c -0.625594,-0.6256 -0.649433,-0.78098 -0.649433,-4.23334 v -3.583899 h -2.116667 -2.116666 v 3.583899 c 0,3.45236 -0.02384,3.60774 -0.649432,4.23334 -0.409373,0.40937 -0.951728,0.64943 -1.467235,0.64943 -0.515507,0 -1.057861,-0.24006 -1.467235,-0.64943 z m 16.283901,-5.70057 v -2.116669 h -2.116666 -2.116667 v 2.116669 2.11667 h 2.116667 2.116666 z m 8.466666,0 v -2.116669 h -2.116666 -2.116667 v 2.116669 2.11667 h 2.116667 2.116666 z m 8.466667,0 v -2.116669 h -2.116667 -2.116667 v 2.116669 2.11667 h 2.116667 2.116667 z m 8.466666,0 v -2.116669 h -2.116667 -2.116666 v 2.116669 2.11667 h 2.116666 2.116667 z m 16.933327,0 v -2.116669 h -2.11666 -2.11667 v 2.116669 2.11667 h 2.11667 2.11666 z m 8.46667,0 v -2.116669 h -2.11667 -2.11666 v 2.116669 2.11667 h 2.11666 2.11667 z M 117.27089,37.264247 v -25.4 H 68.587548 19.904223 v 25.4 25.4 H 68.587548 117.27089 Z M 41.467763,58.038237 C 28.572337,55.636707 21.021542,42.338767 25.509952,29.934447 30.110569,17.220027 45.92019,12.134667 57.14636,19.758217 c 6.444148,4.37614 10.082168,12.3551 9.117128,19.99583 -1.53043,12.11715 -12.898439,20.49984 -24.795725,18.28419 z m 7.554539,-4.25874 c 1.010994,-0.22994 1.838169,-0.46932 1.838169,-0.53195 0,-0.0626 -1.072189,-2.25574 -2.382644,-4.87358 -2.291236,-4.57712 -2.412987,-4.75972 -3.173606,-4.75972 -0.760809,0 -0.88239,0.18264 -3.189245,4.79096 -1.319056,2.63503 -2.347248,4.84199 -2.284875,4.90437 0.06238,0.0624 0.873085,0.27823 1.801577,0.47967 2.292913,0.49747 5.177282,0.49367 7.390624,-0.01 z m -10.794115,-7.1206 2.309656,-4.62827 -4.628269,2.30966 c -2.545548,1.27031 -4.628268,2.39836 -4.628268,2.50679 0,0.27485 4.141316,4.44009 4.414585,4.44009 0.122452,0 1.261986,-2.08272 2.532296,-4.62827 z m 18.99832,2.52764 c 1.155346,-1.15535 2.100631,-2.19873 2.100631,-2.31861 0,-0.11989 -2.082721,-1.25733 -4.628269,-2.52764 l -4.628269,-2.30966 2.309656,4.62827 c 1.27031,2.54555 2.407748,4.62827 2.527639,4.62827 0.119888,0 1.163264,-0.94529 2.318612,-2.10063 z m -23.032002,-8.74868 c 4.577115,-2.29124 4.759717,-2.41299 4.759717,-3.17361 0,-0.76081 -0.182642,-0.88239 -4.790959,-3.18924 -2.635025,-1.31906 -4.840546,-2.3487 -4.901157,-2.28808 -0.06061,0.0606 -0.297741,0.99038 -0.526957,2.06616 -0.294172,1.38063 -0.373888,2.69529 -0.271013,4.4695 0.125164,2.15857 0.582832,4.49791 0.879972,4.49791 0.04987,0 2.232555,-1.07219 4.850397,-2.38264 z m 27.511443,1.12587 c 0.55179,-2.13404 0.62552,-5.55073 0.16638,-7.71064 -0.22869,-1.07578 -0.46538,-2.00555 -0.52599,-2.06616 -0.0606,-0.0606 -2.26613,0.96902 -4.901158,2.28808 -4.608211,2.3068 -4.790959,2.42845 -4.790959,3.18919 0,0.75949 0.186574,0.88501 4.696354,3.15956 2.582993,1.30276 4.771513,2.37497 4.863383,2.3827 0.0919,0.008 0.31326,-0.5515 0.49199,-1.24273 z m -14.934493,-2.83224 c 1.312386,-1.31239 0.382434,-3.5839 -1.467234,-3.5839 -0.515506,0 -1.057862,0.24005 -1.467233,0.64943 -0.409374,0.40937 -0.649433,0.95173 -0.649433,1.46723 0,0.51551 0.240059,1.05786 0.649433,1.46724 0.409371,0.40937 0.951727,0.64943 1.467233,0.64943 0.515507,0 1.057863,-0.24006 1.467234,-0.64943 z m -8.5423,-10.85995 c -1.270844,-2.54661 -2.408716,-4.6302 -2.528607,-4.6302 -0.284559,0 -4.419242,4.13472 -4.419242,4.41928 0,0.15657 8.658221,4.70167 9.193299,4.82599 0.03585,0.008 -0.974606,-2.06845 -2.24545,-4.61507 z m 21.097983,-0.21562 c 0,-0.27327 -4.165243,-4.41458 -4.440092,-4.41458 -0.108424,0 -1.23648,2.08272 -2.50679,4.62827 l -2.309656,4.62826 4.628269,-2.30965 c 2.545548,-1.27031 4.628269,-2.40985 4.628269,-2.5323 z m -10.833671,-1.53263 c 1.319056,-2.63502 2.348692,-4.84054 2.288082,-4.90115 -0.06061,-0.0606 -0.990383,-0.29774 -2.066161,-0.52696 -2.722443,-0.58007 -7.875825,-0.24915 -8.91691,0.5726 -0.04498,0.0355 0.997442,2.22049 2.316498,4.85551 2.306855,4.60832 2.428436,4.79096 3.189245,4.79096 0.76081,0 0.882391,-0.18264 3.189246,-4.79096 z m 39.540961,31.91495 c -12.89543,-2.40153 -20.44622,-15.69947 -15.95781,-28.10379 4.60061,-12.71442 20.41024,-17.79978 31.636412,-10.17623 6.44415,4.37614 10.08216,12.3551 9.11712,19.99583 -1.53043,12.11715 -12.898438,20.49984 -24.795722,18.28419 z m 7.55454,-4.25874 c 1.01099,-0.22994 1.83817,-0.46932 1.83817,-0.53195 0,-0.0626 -1.07219,-2.25574 -2.38265,-4.87358 -2.29123,-4.57712 -2.41298,-4.75972 -3.1736,-4.75972 -0.76081,0 -0.88239,0.18264 -3.18925,4.79096 -1.31905,2.63503 -2.34725,4.84199 -2.28487,4.90437 0.0624,0.0624 0.87308,0.27823 1.80157,0.47967 2.29292,0.49747 5.17729,0.49367 7.39063,-0.01 z m -10.79412,-7.1206 2.30966,-4.62827 -4.62827,2.30966 c -2.54555,1.27031 -4.62827,2.39836 -4.62827,2.50679 0,0.27485 4.14132,4.44009 4.41459,4.44009 0.12245,0 1.26198,-2.08272 2.53229,-4.62827 z m 18.998322,2.52764 c 1.15535,-1.15535 2.10063,-2.19873 2.10063,-2.31861 0,-0.11989 -2.08272,-1.25733 -4.62827,-2.52764 l -4.628262,-2.30966 2.30965,4.62827 c 1.270312,2.54555 2.407752,4.62827 2.527642,4.62827 0.11989,0 1.16326,-0.94529 2.31861,-2.10063 z m -23.032002,-8.74868 c 4.57712,-2.29124 4.75972,-2.41299 4.75972,-3.17361 0,-0.76081 -0.18264,-0.88239 -4.79096,-3.18924 -2.63503,-1.31906 -4.84055,-2.3487 -4.90116,-2.28808 -0.0606,0.0606 -0.29774,0.99038 -0.52696,2.06616 -0.29417,1.38063 -0.37388,2.69529 -0.27101,4.4695 0.12517,2.15857 0.58283,4.49791 0.87997,4.49791 0.0499,0 2.23256,-1.07219 4.8504,-2.38264 z m 27.511442,1.12587 c 0.55179,-2.13404 0.62552,-5.55073 0.16638,-7.71064 -0.22868,-1.07578 -0.46538,-2.00555 -0.52599,-2.06616 -0.0606,-0.0606 -2.26613,0.96902 -4.90116,2.28808 -4.608212,2.3068 -4.790952,2.42845 -4.790952,3.18919 0,0.75949 0.18657,0.88501 4.696352,3.15956 2.583,1.30276 4.77152,2.37497 4.86338,2.3827 0.0919,0.008 0.31326,-0.5515 0.49199,-1.24273 z m -14.934492,-2.83224 c 1.31239,-1.31239 0.38243,-3.5839 -1.46723,-3.5839 -1.08773,0 -2.11667,1.02893 -2.11667,2.11666 0,1.08773 1.02894,2.11667 2.11667,2.11667 0.5155,0 1.05786,-0.24006 1.46723,-0.64943 z m -8.5423,-10.85995 c -1.27084,-2.54661 -2.40872,-4.6302 -2.52861,-4.6302 -0.28456,0 -4.41924,4.13472 -4.41924,4.41928 0,0.15657 8.65822,4.70167 9.1933,4.82599 0.0358,0.008 -0.97461,-2.06845 -2.24545,-4.61507 z m 21.097982,-0.21562 c 0,-0.27327 -4.16524,-4.41458 -4.44009,-4.41458 -0.10842,0 -1.23648,2.08272 -2.506792,4.62827 l -2.30965,4.62826 4.628262,-2.30965 c 2.54555,-1.27031 4.62827,-2.40985 4.62827,-2.5323 z m -10.833672,-1.53263 c 1.31906,-2.63502 2.34869,-4.84054 2.28808,-4.90115 -0.0606,-0.0606 -0.99038,-0.29774 -2.06616,-0.52696 -2.72244,-0.58007 -7.87582,-0.24915 -8.91691,0.5726 -0.045,0.0355 0.99745,2.22049 2.3165,4.85551 2.30686,4.60832 2.42844,4.79096 3.18925,4.79096 0.76081,0 0.88239,-0.18264 3.18924,-4.79096 z M 15.67089,49.964247 v -6.35 h -2.116667 -2.116667 v 6.35 6.35 h 2.116667 2.116667 z m 0,-25.4 v -6.35 h -2.116667 -2.116667 v 6.35 6.35 h 2.116667 2.116667 z"/>
    </g>
</svg>
