<?xml version="1.0" encoding="UTF-8" standalone="no"?>
<svg xmlns="http://www.w3.org/2000/svg" width="512" viewBox="0 0 60 29.785157" height="250">
    <g transform="rotate(45,50.797224,22.343402)"
       fill="#555555">
        <path d="m 4.8177,39.0558 c -0.3912608,-0.388824 -1.0230392,-0.388824 -1.4143,0 L 0.575,41.8843 1.9893,43.2985 4.8177,40.47 c 0.3887576,-0.391249 0.3887576,-1.022951 0,-1.4142 z"/>
        <path d="M 42.3422,2.9456 40.928,1.5313 9.06,33.399 c -0.3876067,0.391017 -0.3862255,1.021794 0.00309,1.41111 0.3893155,0.389316 1.020093,0.390697 1.41111,0.0031 z"/>
        <path d="m 6.2319,36.2274 c -0.1843815,0.190016 -0.2904217,0.442513 -0.297,0.7072 l 0.0211,0.1909 c 0.012606,0.0663 0.033959,0.130625 0.0635,0.1913 0.019853,0.06043 0.048602,0.117552 0.0853,0.1695 0.038736,0.05467 0.081204,0.10659 0.1271,0.1554 0.1898346,0.184581 0.4423962,0.290628 0.7071,0.2969 C 7.275893,37.945 7.5927193,37.778889 7.7791035,37.498178 7.9654878,37.217467 7.9956189,36.861014 7.859,36.553 7.810135,36.431641 7.7379772,36.321026 7.6466,36.2274 7.4603951,36.037379 7.2055457,35.930299 6.9395,35.930299 c -0.2660457,0 -0.520895,0.10708 -0.7071,0.297101 z"/>
        <path d="m 15.6455,58.92 c -0.522514,0.0021 -1.024081,-0.205269 -1.3926,-0.5757 L 6.6429,50.733 C 6.0078869,50.086992 5.8905632,49.093113 6.3577,48.317 6.7789117,47.572793 6.6520461,46.639025 6.0475458,46.034175 5.4430455,45.429324 4.509351,45.301919 3.7649,45.7227 2.9884029,46.191006 1.9932779,46.073668 1.347,45.4376 l -0.7715,-0.771 c -0.7663652,-0.768916 -0.76681226,-2.012734 -0.001,-2.7822 0.39032725,-0.390879 1.0236205,-0.391327 1.4145,-10e-4 0.3908795,0.390327 0.3913273,1.023621 10e-4,1.4145 l 0.7715,0.726 c 1.5185435,-0.898725 3.4532037,-0.65327 4.6992,0.5962 1.2394441,1.242642 1.4990085,3.158912 0.6348,4.6865 L 15.6678,56.9312 55.9746,16.5781 48.3633,9.0127 C 46.844798,9.9112227 44.910368,9.6660022 43.6641,8.417 42.425183,7.1745416 42.165269,5.2590767 43.0283,3.7314 L 42.2959,2.9453 C 42.112671,3.1324621 41.861705,3.2378211 41.599784,3.2375388 41.337864,3.2372565 41.087125,3.1313567 40.9043,2.9438 40.719892,2.7531655 40.618843,2.4970343 40.62342,2.2318419 40.627997,1.9666495 40.737823,1.7141576 40.9287,1.53 41.697823,0.76412728 42.941538,0.76466388 43.71,1.5312 l 0.7724,0.7725 c 0.635262,0.6468706 0.751795,1.6418439 0.2832,2.418 -0.419472,0.7444568 -0.291505,1.677205 0.312963,2.281184 0.604469,0.603979 1.53732,0.7311905 2.281437,0.311116 0.776789,-0.4669541 1.771024,-0.3497216 2.4179,0.2851 l 7.61,7.6113 c 0.767311,0.769082 0.766863,2.01427 -0.001,2.7828 l -40.3508,40.352 c -0.367964,0.369929 -0.868833,0.576961 -1.3906,0.5748 z"/>
        <path d="m 20.4326,60.9722 c -0.522186,0.0019 -1.023375,-0.205441 -1.3916,-0.5757 l -2.7353,-2.7354 c -0.259957,-0.251074 -0.364213,-0.622878 -0.272697,-0.972507 0.09151,-0.34963 0.36456,-0.622675 0.71419,-0.71419 0.349629,-0.09152 0.721433,0.01274 0.972507,0.272697 l 2.7364,2.7358 8.8447,-8.8911 -2.7354,-2.69 c -0.380397,-0.392175 -0.375623,-1.01706 0.01072,-1.403377 0.386345,-0.386318 1.01123,-0.391048 1.403378,-0.01062 l 2.7353,2.7353 c 0.766869,0.768908 0.766869,2.013392 0,2.7823 l -8.8916,8.8916 c -0.367898,0.370075 -0.868776,0.577255 -1.3906,0.5752 z"/>
        <path d="m 35.48,45.9253 c -0.522186,0.0019 -1.023375,-0.205441 -1.3916,-0.5757 L 31.353,42.6143 C 30.975207,42.221825 30.981063,41.599164 31.366171,41.213865 31.75128,40.828566 32.373938,40.822401 32.7666,41.2 l 2.7363,2.7358 22.5235,-22.57 -2.7354,-2.6895 c -0.382094,-0.391903 -0.378125,-1.018167 0.0089,-1.405196 0.387029,-0.387029 1.013293,-0.390998 1.405196,-0.0089 L 59.44,19.998 c 0.767283,0.769077 0.76688,2.01422 -9e-4,2.7828 L 36.87,45.35 c -0.367735,0.369964 -0.868369,0.577168 -1.39,0.5753 z"/>
        <path d="m 23.8525,57.9541 c -0.265263,2.85e-4 -0.519701,-0.105161 -0.707,-0.293 l -3.42,-3.4194 c -0.380425,-0.392148 -0.375695,-1.017034 0.01062,-1.403378 0.386317,-0.386345 1.011202,-0.391119 1.403377,-0.01072 l 3.42,3.42 c 0.285921,0.286007 0.371428,0.716074 0.216659,1.089701 -0.15477,0.373627 -0.519345,0.617253 -0.923759,0.617299 z"/>
        <path d="m 27.2725,54.5347 c -0.265297,3.12e-4 -0.519776,-0.105136 -0.7071,-0.293 l -3.42,-3.42 c -0.390465,-0.390631 -0.390331,-1.023835 3e-4,-1.4143 0.390631,-0.390465 1.023835,-0.390331 1.4143,3e-4 l 3.42,3.42 c 0.285979,0.285985 0.371539,0.716074 0.216786,1.089735 C 28.042033,54.291097 27.67744,54.534754 27.273,54.5348 Z"/>
        <path d="m 38.8994,42.9072 c -0.265253,3.34e-4 -0.519697,-0.105079 -0.707,-0.2929 l -3.42,-3.4195 c -0.378972,-0.392379 -0.373552,-1.016085 0.01218,-1.401819 0.385734,-0.385733 1.00944,-0.391153 1.401819,-0.01218 l 3.42,3.4194 c 0.285908,0.285994 0.371422,0.716037 0.216678,1.089655 -0.154744,0.373618 -0.519282,0.617259 -0.923678,0.617345 z"/>
        <path d="m 42.3193,39.4878 c -0.265263,2.85e-4 -0.519701,-0.105161 -0.707,-0.293 l -3.42,-3.42 c -0.380425,-0.392148 -0.375695,-1.017033 0.01062,-1.403378 0.386317,-0.386345 1.011202,-0.391119 1.403377,-0.01072 l 3.42,3.42 c 0.285921,0.286007 0.371428,0.716074 0.216659,1.089701 -0.15477,0.373627 -0.519345,0.617253 -0.923759,0.617299 z"/>
        <path d="m 45.7393,36.0679 c -0.265297,3.12e-4 -0.519777,-0.105136 -0.7071,-0.293 l -3.42,-3.4194 c -0.382094,-0.391903 -0.378125,-1.018167 0.0089,-1.405196 0.387029,-0.387029 1.013293,-0.390998 1.405196,-0.0089 l 3.42,3.4194 c 0.285979,0.285985 0.371539,0.716074 0.216786,1.089735 -0.154753,0.373662 -0.519346,0.617319 -0.923786,0.617365 z"/>
        <path d="m 49.1582,32.6484 c -0.265255,3.45e-4 -0.519703,-0.10507 -0.707,-0.2929 l -3.419,-3.42 c -0.259031,-0.251287 -0.362569,-0.622648 -0.27092,-0.971707 0.09165,-0.34906 0.364266,-0.621657 0.713332,-0.713282 0.349066,-0.09162 0.72042,0.01194 0.971688,0.270989 l 3.4189,3.42 c 0.285908,0.285994 0.371422,0.716037 0.216678,1.089655 -0.154744,0.373617 -0.519282,0.617259 -0.923678,0.617345 z"/>
        <path d="m 52.5781,29.2285 c -0.265274,3.4e-4 -0.519732,-0.105114 -0.707,-0.293 l -3.42,-3.42 c -0.259957,-0.251074 -0.364213,-0.622878 -0.272697,-0.972507 0.09151,-0.34963 0.36456,-0.622675 0.71419,-0.71419 0.349629,-0.09152 0.721432,0.01274 0.972507,0.272697 l 3.42,3.42 c 0.285921,0.286007 0.371428,0.716074 0.216659,1.089701 -0.15477,0.373627 -0.519345,0.617253 -0.923759,0.617299 z"/>
        <path d="m 55.998,25.8086 c -0.265263,2.85e-4 -0.519701,-0.105161 -0.707,-0.293 l -3.42,-3.4194 c -0.382094,-0.391903 -0.378125,-1.018167 0.0089,-1.405196 0.387029,-0.387029 1.013293,-0.390998 1.405196,-0.0089 l 3.42,3.42 c 0.285921,0.286007 0.371428,0.716074 0.216659,1.089701 -0.15477,0.373627 -0.519345,0.617253 -0.923759,0.617299 z"/>
        <path d="m 17.0127,50.7 c -0.530436,9.61e-4 -1.03937,-0.20958 -1.4141,-0.585 L 8.8057,43.3218 c -0.7802812,-0.781434 -0.7802812,-2.047166 0,-2.8286 l 4.7412,-4.7412 c 0.781239,-0.780279 2.04686,-0.780279 2.8281,0 l 6.793,6.7929 c 0.780226,0.781457 0.780226,2.047143 0,2.8286 l -4.7412,4.7412 c -0.374681,0.37553 -0.883621,0.586182 -1.4141,0.5853 z m -2.0518,-13.534 -4.7409,4.7412 6.793,6.7935 4.7422,-4.7422 z"/>
        <path d="m 25.9043,41.8081 c -0.530224,8.84e-4 -1.039012,-0.209237 -1.4141,-0.584 L 17.6973,34.43 c -0.780279,-0.781239 -0.780279,-2.046861 0,-2.8281 l 4.7412,-4.7413 c 0.781262,-0.780224 2.046838,-0.780224 2.8281,0 l 6.793,6.793 c 0.375144,0.374968 0.585913,0.88364 0.585913,1.41405 0,0.53041 -0.210769,1.039082 -0.585913,1.41405 l -4.7412,4.7417 c -0.374874,0.37517 -0.88374,0.585575 -1.4141,0.5847 z m -2.0518,-13.5332 -4.7412,4.7412 6.793,6.7935 4.7412,-4.7417 v -5e-4 l 0.001,-10e-4 z"/>
        <path d="m 34.7959,32.917 c -0.530436,9.61e-4 -1.03937,-0.20958 -1.4141,-0.585 l -6.7939,-6.7929 c -0.778093,-0.781826 -0.77854,-2.045324 -0.001,-2.8277 L 31.33,17.9692 c 0.37345,-0.376218 0.882003,-0.587224 1.4121,-0.5859 h 0.0019 c 0.530709,-0.0014 1.039928,0.209538 1.4141,0.5859 l 6.793,6.7935 c 0.375144,0.374968 0.585913,0.88364 0.585913,1.41405 0,0.53041 -0.210769,1.039082 -0.585913,1.41405 L 36.21,32.332 c -0.37473,0.37542 -0.883664,0.585961 -1.4141,0.585 z m -2.0518,-13.5337 -4.7421,4.7412 6.7939,6.7935 4.7422,-4.7422 z"/>
        <path d="m 43.6865,24.0254 c -0.530161,7.14e-4 -1.038855,-0.209383 -1.414,-0.584 L 35.48,16.6475 c -0.78029,-0.781274 -0.78029,-2.046926 0,-2.8282 l 4.7412,-4.7412 c 0.374172,-0.3763623 0.883392,-0.5873456 1.4141,-0.5859 h 0.0019 c 0.530573,-0.00125 1.039527,0.2101339 1.4131,0.5869 l 6.793,6.792 c 0.375144,0.374968 0.585913,0.88364 0.585913,1.41405 0,0.53041 -0.210769,1.039082 -0.585913,1.41405 l -4.7412,4.7417 c -0.375311,0.375409 -0.884762,0.585761 -1.4156,0.5845 z m -2.0517,-13.5332 -4.7412,4.7412 6.7929,6.7935 4.7422,-4.7417 10e-4,-0.001 z"/>
    </g>
</svg>
