<?xml version="1.0" encoding="iso-8859-1"?>
<svg xmlns="http://www.w3.org/2000/svg" viewBox="0 0 480 480">
    <g fill="#555555">
        <path d="M472,104H96V64c0-13.255-10.745-24-24-24H8c-4.418,0-8,3.582-8,8v32c0,4.418,3.582,8,8,8h40v344c0,4.418,3.582,8,8,8h32c4.418,0,8-3.582,8-8v-56h88c4.418,0,8-3.582,8-8v-24h48v24c0,4.418,3.582,8,8,8h224c4.418,0,8-3.582,8-8V112C480,107.582,476.418,104,472,104z M80,424H64V80c0-4.418-3.582-8-8-8H16V56h56c4.418,0,8,3.582,8,8V424z M96,200h16v80H96V200zM464,360h-16v-32h-16v32h-16v-32h-16v32h-16v-32h-16v32h-16v-32h-16v32h-16v-32h-16v32h-16v-32h-16v32h-16v-24c0-4.418-3.582-8-8-8h-64c-4.418,0-8,3.582-8,8v24H96v-64h24c4.418,0,8-3.582,8-8v-96c0-4.418-3.582-8-8-8H96v-64h368V360z"/>
        <path d="M320,256c0,4.418,3.582,8,8,8h16v16h16v-16h8v16h16v-16h8v16h16v-16h16c4.418,0,8-3.582,8-8v-16h16v-16h-16v-8h16v-16h-16v-8h16v-16h-16v-16c0-4.418-3.582-8-8-8h-16v-16h-16v16h-8v-16h-16v16h-8v-16h-16v16h-16c-4.418,0-8,3.582-8,8v16h-16v16h16v8h-16v16h16v8h-16v16h16V256z M336,168h80v80h-80V168z"/>
        <path d="M352,232h48v-48h-48V232z M368,200h16v16h-16V200z"/>
        <circle cx="192" cy="168" r="16"/>
        <rect x="176" y="200" width="96" height="16"/>
        <rect x="176" y="232" width="64" height="16"/>
        <rect x="176" y="264" width="64" height="16"/>
        <circle cx="240" cy="168" r="16"/>
        <rect x="256" y="232" width="16" height="16"/>
        <rect x="256" y="264" width="16" height="16"/>
    </g>
</svg>
